<svg xmlns="http://www.w3.org/2000/svg" aria-hidden="true" style="position:absolute;width:0;height:0;overflow:hidden">
    <defs>
        <symbol id="pixel-star" viewBox="0 0 32 32">
            <path d="M14.208 1.034h3.584v1.81h-3.584v-1.81zM14.208 18.877h3.584v1.81h-3.584v-1.81zM3.2 7.499h9.728v1.81H3.2v-1.81zM19.072 7.499H28.8v1.81h-9.728v-1.81zM9.6 13.964h1.792v3.362H9.6v-3.362zM20.608 13.964H22.4v3.362h-1.792v-3.362zM22.4 12.412h1.792v3.362H22.4v-3.362zM7.808 12.412H9.6v3.362H7.808v-3.362zM7.808 17.325H9.6v3.362H7.808v-3.362zM22.4 17.325h1.792v3.362H22.4v-3.362zM9.6 21.98h3.328v1.81H9.6v-1.81zM19.072 21.98H22.4v1.81h-3.328v-1.81z"/>

            <path d="M11.136 5.947h3.328v1.81h-3.328v-1.81zM17.536 5.947h3.328v1.81h-3.328v-1.81zM23.936 10.861h3.328v1.81h-3.328v-1.81zM4.736 10.861h3.328v1.81H4.736v-1.81z"/>

            <path d="M12.672 2.586h1.792v3.362h-1.792V2.586zM17.536 2.586h1.792v3.362h-1.792V2.586zM6.272 20.428H8.32V25.6H6.272v-5.172zM23.68 20.428h2.048V25.6H23.68v-5.172zM12.672 20.428h1.792v1.81h-1.792v-1.81zM17.536 20.428h1.792v1.81h-1.792v-1.81zM23.936 12.412h1.792v1.81h-1.792v-1.81zM27.008 9.05H28.8v1.81h-1.792V9.05zM3.2 9.05h1.792v1.81H3.2V9.05zM6.272 12.412h1.792v1.81H6.272v-1.81z"/>

            <path d="M7.808 23.79H9.6v1.81H7.808v-1.81zM22.4 23.79h1.792v1.81H22.4v-1.81zM15.232 0h1.536v1.034h-1.536V0z"/>
        </symbol>

        <symbol id="moon" viewBox="0 0 29 32">
            <path fill="#f1ad00" stroke="#111740" stroke-width="1.215" d="M7.885 13.772c0 .623.076.912.124 1.496 0 0 1.644 3.887 3.719 5.235 2.106 1.368 6.075 1.246 6.075 1.246l1.24-.249s2.355-.498 3.967-2.119 1.983-3.49 1.983-3.49-6.199 3.116-9.546-2.119 2.727-10.095 2.727-10.095-5.703.374-8.058 3.116-2.232 6.98-2.232 6.98z" style="fill:var(--color1, #f1ad00);stroke:var(--color2, #111740)"/>

            <path fill="#779dc6" d="M19.786 12.775h5.083s1.736 0 1.86-2.243-1.86-2.243-1.86-2.243 0-2.617-2.603-2.617-2.479 2.617-2.479 2.617-1.86 0-1.86 2.243 1.86 2.243 1.86 2.243zM15.447 25.488H5.033s-2.603-.872-2.603-2.991 2.479-3.365 2.479-3.365-.372-2.493 2.355-3.614 4.835.997 4.835.997 1.736-.997 2.851 0c1.116.997.496 2.617.496 2.617s2.603.997 2.355 3.365c-.248 2.368-2.355 2.991-2.355 2.991z" style="fill:var(--color3, #779dc6)"/>

            <path fill="none" stroke="#111740" stroke-width="1.215" d="M19.786 12.775h5.083s1.736 0 1.86-2.243-1.86-2.243-1.86-2.243 0-2.617-2.603-2.617-2.479 2.617-2.479 2.617-1.86 0-1.86 2.243 1.86 2.243 1.86 2.243zM15.447 25.488H5.033s-2.603-.872-2.603-2.991 2.479-3.365 2.479-3.365-.372-2.493 2.355-3.614 4.835.997 4.835.997 1.736-.997 2.851 0c1.116.997.496 2.617.496 2.617s2.603.997 2.355 3.365c-.248 2.368-2.355 2.991-2.355 2.991z" style="stroke:var(--color2, #111740)"/>

            <path fill="#f1ad00" d="M7.141 5.172s-.763-.531-1.116-.997c-.447-.59-.744-1.745-.744-1.745s-.392 1.152-.868 1.745c-.366.456-1.116.997-1.116.997s.738.713 1.116 1.246c.415.585.868 1.62.868 1.62s.36-1.04.744-1.62c.361-.545 1.116-1.246 1.116-1.246zM26.481 23.868s-.763-.531-1.116-.997c-.447-.59-.744-1.745-.744-1.745s-.392 1.152-.868 1.745c-.366.456-1.116.997-1.116.997s.738.713 1.116 1.246c.415.585.868 1.62.868 1.62s.36-1.04.744-1.62c.361-.545 1.116-1.246 1.116-1.246z" style="fill:var(--color1, #f1ad00)"/>

            <path fill="none" stroke="#111740" stroke-width="1.215" d="M7.141 5.172s-.763-.531-1.116-.997c-.447-.59-.744-1.745-.744-1.745s-.392 1.152-.868 1.745c-.366.456-1.116.997-1.116.997s.738.713 1.116 1.246c.415.585.868 1.62.868 1.62s.36-1.04.744-1.62c.361-.545 1.116-1.246 1.116-1.246zM26.481 23.868s-.763-.531-1.116-.997c-.447-.59-.744-1.745-.744-1.745s-.392 1.152-.868 1.745c-.366.456-1.116.997-1.116.997s.738.713 1.116 1.246c.415.585.868 1.62.868 1.62s.36-1.04.744-1.62c.361-.545 1.116-1.246 1.116-1.246z" style="stroke:var(--color2, #111740)"/>
        </symbol>

        <symbol id="pixel-heart" viewBox="0 0 32 32">
            <path d="M14.933 21.229h2.133V25.6h-2.133v-4.371z"/>
            <path d="M14.933 21.229h2.133V25.6h-2.133v-4.371z"/>
            <path d="M13.867 21.229h4.267v2.498h-4.267v-2.498z"/>
            <path d="M13.867 21.229h4.267v2.498h-4.267v-2.498z"/>
            <path d="M18.133 18.732h2.133v2.498h-2.133v-2.497z"/>
            <path d="M18.133 18.732h2.133v2.498h-2.133v-2.497zM20.266 16.234h2.133v2.498h-2.133v-2.498z"/>
            <path d="M20.266 16.234h2.133v2.498h-2.133v-2.498zM22.4 13.737h2.133v2.498h-2.134v-2.498z"/>
            <path d="M22.4 13.737h2.133v2.498h-2.134v-2.498zM24.533 11.239h2.133v2.498h-2.133v-2.498z"/>
            <path d="M24.533 11.239h2.133v2.498h-2.133v-2.498zM26.667 4.995H28.8v6.244h-2.134V4.995z"/>
            <path d="M26.667 4.995H28.8v6.244h-2.134V4.995zM3.2 4.995h2.133v6.244H3.2V4.995z"/>
            <path d="M3.2 4.995h2.133v6.244H3.2V4.995zM11.734 18.732h2.133v2.497h-2.133v-2.498z"/>
            <path d="M11.734 18.732h2.133v2.497h-2.133v-2.498zM9.6 16.234h2.133v2.498H9.599v-2.498z"/>
            <path d="M9.6 16.234h2.133v2.498H9.599v-2.498z"/>
            <path d="M7.467 13.737H9.6v2.498H7.467v-2.498z"/>
            <path d="M7.467 13.737H9.6v2.498H7.467v-2.498zM5.333 11.239h2.133v2.498H5.332V11.24z"/>
            <path d="M5.333 11.239h2.133v2.498H5.332V11.24zM12.8 2.498h2.133v2.498H12.8V2.498z"/>
            <path d="M12.8 2.498h2.133v2.498H12.8V2.498zM17.066 2.498h2.133v2.498h-2.133V2.498z"/>
            <path d="M17.066 2.498h2.133v2.498h-2.133V2.498zM24.533 2.498h2.133v2.498h-2.134V2.498z"/>
            <path d="M24.533 2.498h2.133v2.498h-2.134V2.498zM19.2 0h5.333v2.498H19.2V0z"/>
            <path d="M19.2 0h5.333v2.498H19.2V0zM7.467 0H12.8v2.498H7.467V0z"/>
            <path d="M7.467 0H12.8v2.498H7.467V0zM14.933 4.995h2.133v2.498h-2.133V4.995z"/>
            <path d="M14.933 4.995h2.133v2.498h-2.133V4.995zM5.333 2.498h2.134v2.498H5.334V2.498z"/>
            <path d="M5.333 2.498h2.134v2.498H5.334V2.498z"/>
        </symbol>

        <symbol id="bow" viewBox="0 0 33 32">
            <path fill="#f283a5" d="M12.328 26.087c-.162-4.956.403-7.873 2.527-15.483l-7.321 4.081c-2.272 4.347-3.045 6.471-3.239 9.523l4.341-2.203 3.693 4.081z" style="fill:var(--color4, #f283a5)"/>

            <path fill="#f283a5" d="M14.855 10.603c1.49.324 1.101.454 2.915 0 0 0 .777-.324.777-1.49V6.716c-.141-.752-.338-.939-.777-1.101h-2.721c-.565.604-.675.962-.648 1.62v2.138c.185.972 0 .777.454 1.231zM28.524 24.208c-.387-3.704-.921-5.785-3.563-9.523l-7.191-4.081c1.849 7.438 2.997 10.512 2.721 15.483l3.563-4.081 4.47 2.203z" style="fill:var(--color4, #f283a5)"/>

            <path fill="#f7a1c8" d="M2.675 1.922c0 .842-.127 8.672.583 11.337 2.246-3.251 6.284-1.166 11.143-3.887V7.234c-.027-.658.083-1.015.648-1.62-1.87-1.833-3.218-2.77-6.997-4.017-2.459-.756-5.377-.518-5.377.324zM29.625 13.259c.643-3.056.907-10.689.648-11.337s-1.824-.885-4.6-.324c-5.973 1.359-6.366 2.336-7.904 4.017.439.162.636.349.777 1.101v2.397c4.535 2.332 11.078 2.462 11.078 4.146z" style="fill:var(--color5, #f7a1c8)"/>

            <path fill="#ed7899" d="M3.258 13.259c.221 1.299.606 1.893 4.276 1.425l7.321-4.081c-.454-.454-.268-.259-.454-1.231-4.859 2.721-8.897.636-11.143 3.887zM24.961 14.685c3.202.548 4.203.221 4.664-1.425 0-1.684-6.543-1.814-11.078-4.146 0 1.166-.777 1.49-.777 1.49l7.191 4.081z" style="fill:var(--color6, #ed7899)"/>

            <path fill="none" stroke="#3d264a" stroke-width="1.905" d="M24.961 14.685c2.642 3.738 3.176 5.82 3.563 9.523l-4.47-2.203-3.563 4.081c.276-4.971-.872-8.045-2.721-15.483m7.191 4.082c3.202.548 4.203.221 4.664-1.425m-4.664 1.425-7.191-4.081m0-.001c-1.814.454-1.425.324-2.915 0m2.915 0s.777-.324.777-1.49m-3.692 1.49c-2.124 7.61-2.689 10.527-2.527 15.483l-3.693-4.081-4.34 2.203c.194-3.052.967-5.176 3.239-9.523m7.321-4.082c-.454-.454-.268-.259-.454-1.231m.454 1.231-7.321 4.081m0 .001c-3.669.468-4.054-.126-4.276-1.425m0-.001c-.71-2.665-.583-10.495-.583-11.337s2.918-1.08 5.377-.324c3.779 1.247 5.126 2.183 6.997 4.017M3.258 13.259c2.246-3.251 6.284-1.166 11.143-3.887m.648-3.757h2.721m-2.721 0c-.565.604-.675.962-.648 1.62v2.138m3.369-3.758c.439.162.636.349.777 1.101v2.397m-.777-3.498c1.538-1.681 1.93-2.657 7.904-4.017 2.775-.562 4.34-.324 4.6.324s-.005 8.281-.648 11.337m-.001 0c0-1.684-6.543-1.814-11.078-4.146" style="stroke:var(--color7, #3d264a)"/>
            
            <path fill="none" stroke="#3d264a" stroke-linecap="round" stroke-width="1.905" d="M26.386 3.736h1.684M26.451 6.263h1.684M26.451 8.854h1.684M4.684 3.801h1.684M4.684 6.263h1.684M4.684 8.854h1.684M23.341 18.442l.259 1.425M9.737 18.442l-.389 1.425M11.615 12.612c-.972 1.49-.842 1.814-1.49 3.887M21.199 12.649c.972 1.49.842 1.814 1.49 3.887" style="stroke:var(--color7, #3d264a)"/>
        </symbol>

        <symbol id="star-set-pc" viewBox="0 0 78 32">
            <path fill="#ebe2a9" d="M2.341 2.007a.334.334 0 1 1-.669-.001.335.335 0 0 1 .67 0zM10.815 11.373a.223.223 0 1 1-.446 0 .223.223 0 0 1 .446 0zM8.474 30.049a.28.28 0 1 1-.558 0 .28.28 0 0 1 .558 0zM28.544 26.62a.139.139 0 1 1-.278 0 .139.139 0 1 1 .278 0zM43.373 15.08a.195.195 0 1 1-.39 0 .195.195 0 1 1 .39 0zM51.01 7.805a.28.28 0 1 1-.558 0 .28.28 0 0 1 .558 0zM24.028 18.983a.362.362 0 1 1-.724 0 .362.362 0 0 1 .724 0zM76.934 21.129a.28.28 0 1 1-.558 0 .28.28 0 0 1 .558 0zM73.812 8.028a.223.223 0 1 1-.446 0 .223.223 0 0 1 .446 0z" style="fill:var(--color1, #ebe2a9)"/>
        </symbol>

        <symbol id="star-set-tablet" viewBox="0 0 44 32">
            <path fill="#ebe2a9" d="M5.006 3.218a.536.536 0 1 1-1.072 0 .536.536 0 0 1 1.072 0zM19.307 18.235a.358.358 0 1 1-.717 0 .358.358 0 0 1 .717 0zM30.57 10.726a.358.358 0 1 1-.717 0 .358.358 0 0 1 .717 0zM6.883 25.832a.447.447 0 1 1-.894 0 .447.447 0 0 1 .894 0zM35.039 28.872a.447.447 0 1 1-.894 0 .447.447 0 0 1 .894 0zM41.475 8.983a.58.58 0 1 1-1.162 0 .58.58 0 0 1 1.162 0zM1.162 12.827a.223.223 0 1 1-.446 0 .223.223 0 0 1 .446 0z" style="fill:var(--color1, #ebe2a9)"/>
        </symbol>

        <symbol id="star-set-mobile" viewBox="0 0 42 32">
            <path fill="#ebe2a9" d="M5.246 4.262a.328.328 0 1 1-.656 0 .328.328 0 0 1 .656 0zM39.607 11.344a.328.328 0 1 1-.656 0 .328.328 0 0 1 .656 0zM1.311 16.197a.328.328 0 1 1-.656 0 .328.328 0 0 1 .656 0zM28.984 6.885a.59.59 0 1 1-1.18 0 .59.59 0 0 1 1.18 0zM2.885 27.672a.393.393 0 1 1-.786 0 .393.393 0 0 1 .786 0zM20.59 20.918a.46.46 0 1 1-.92-.001.46.46 0 0 1 .92.001zM11.148 13.246a.656.656 0 1 1-1.313 0 .656.656 0 0 1 1.313 0z" style="fill:var(--color1, #ebe2a9)"/>
        </symbol>

        <symbol id="heart-copy" viewBox="0 0 30 32">
            <path stroke-width="1.684" d="M14.894 28.632s-1.523-3.251-4.822-5.586c-3.1-2.195-6.859-6.325-7.749-9.776-.674-2.613-1.013-4.521 0-6.983C3.487 3.458 5.311 1.97 8.006 1.698c3.091-.312 6.888 4.589 6.888 4.589s3.789-4.756 6.888-4.589c2.87.155 4.958 1.587 6.199 4.589 1.017 2.459.703 4.38 0 6.983-.967 3.581-4.994 7.98-7.749 9.776-3.37 2.196-5.338 5.586-5.338 5.586z"/>
        </symbol>

        <symbol id="shelter-hero" viewBox="0 0 32 32">
            <path d="M27.733 8.309c-.561-.281-.225-3.091-2.246-3.091-3.485 0-3.705-1.4-3.705-1.4s1.083.291 1.74.112c.618-.168 1.307-.233 1.853 0 .529.226.618 1.011.618 1.011s.072-.387 0-.618c-.139-.448-.494-.638-.954-.73-.842-.168-1.199.177-1.965.112-.647-.055-1.628-.337-1.628-.337S19.831.715 18.246.28c-1.687-.463-2.994.102-4.379 1.235-.835.683-1.224 1.397-1.572 2.302-.281.73-.655 1.113-.449 1.909.272 1.051 2.246 2.077 2.246 2.077s-1.573-.06-2.414.393c-.737.397-1.516 1.516-1.516 1.516s-.174-.888-.674-1.067c-.786-.281-1.291.505-1.909 1.067-.683.621-.468 1.173-.281 2.077.191.922.915 1.215 1.123 2.133.102.451-.393 1.235-.393 1.235s2.138-.632 2.302-1.516c.124-.669-.563-1.174-.618-1.853-.025-.306-.291-.689 0-.786.337-.112.523 1.879 1.291 2.47.73.561 2.358.73 2.358.73s-.146.389-.281.618c-.237.402-.561.337-.561.337l-.281 1.067-.561.168.056.618-.337.281v.449l.281 1.291s-1.009.431-1.572.842c-.626.457-.891.822-1.403 1.404-.548.622-.857.978-1.291 1.684-.421.685-.508 1.149-.898 1.853-.324.585-.898 1.46-.898 1.46l-2.246.337-.449.449-.225 1.067-.898.168-.337.337-.337.786-.786.505-.225.393.168.281 3.537.168 1.516.505 1.404-.112 1.628.168 1.403-.337h2.358l1.179.449.898.056.505.281 1.404.168h1.74l1.684-.337 1.235.168 1.291.056 1.235-.168 2.021-.674 2.246.056.168-.449 3.93.056.056-.505-2.751-1.291-.674-.73-.505-.842h-.618s.717-.821.954-1.46c.246-.663.233-1.089.225-1.797a6.044 6.044 0 0 0-.168-1.404c-.133-.61-.259-.942-.505-1.516-.481-1.124-1.684-2.639-1.684-2.639l-.225-.618s.01-1.376-.112-2.246c-.078-.553-.281-1.403-.281-1.403s.357.027.561-.056c.147-.059.337-.225.337-.225s-.225-.073-.337-.168c-.187-.158-.281-.561-.281-.561s.58.193.954.112c.382-.082.6-.249.73-.618.08-.227 0-.674 0-.674s-.052.634-.281.786c-.186.124-.343.162-.561.112-.257-.059-.505-.449-.505-.449s.319-.457.449-.786c.26-.655.168-1.796.168-1.796s.675.312.674.786c-.001.334-.505 1.235-.505 1.235s.751-.564.842-.898c.168-.618-.168-1.46-.168-1.46s.449 0 .561.337c.111.333 0 .898 0 .898s.303-.545.225-.898c-.043-.191.099-1.27-.505-1.572zm-6.287 11.34-1.123 2.246-1.572.112-1.347.393-.168-1.179-.449-1.235h1.965l1.572-1.965.842.842.281.786zm-4.548-1.796.168-1.123 1.347-.281-.449.73-.281.674h-.786zm.674-5.839c-.068.457 0 1.179 0 1.179s-.275.267-.449.505c-.18.246-.337.73-.337.73s-.314-.291-.561-.393c-.267-.11-.73-.112-.73-.112l1.628-.898-.225-2.077h-.337l-.73-1.516s.449.618.898.954c.217.163.842-.505.842-.505s0 .898.281 1.123c.331.265-.218.592-.281 1.011zm9.207-5.67c.561.618.168 1.235.505 1.909.139.279.55.201.618.505.024.107-.112.281-.112.281s-.678.105-1.011-.112c-.321-.21-.532-.299-.449-.674.112-.505.413-.907.281-1.347-.112-.373-.842-1.067-.842-1.067s.698.162 1.011.505z"/>
        </symbol>
</defs>
</svg>