<svg xmlns="http://www.w3.org/2000/svg" aria-hidden="true" style="position:absolute;width:0;height:0;overflow:hidden">
    <defs>
        <symbol id="pixel-star" viewBox="0 0 32 32">
            <path d="M14.208 1.034h3.584v1.81h-3.584v-1.81zM14.208 18.877h3.584v1.81h-3.584v-1.81zM3.2 7.499h9.728v1.81H3.2v-1.81zM19.072 7.499H28.8v1.81h-9.728v-1.81zM9.6 13.964h1.792v3.362H9.6v-3.362zM20.608 13.964H22.4v3.362h-1.792v-3.362zM22.4 12.412h1.792v3.362H22.4v-3.362zM7.808 12.412H9.6v3.362H7.808v-3.362zM7.808 17.325H9.6v3.362H7.808v-3.362zM22.4 17.325h1.792v3.362H22.4v-3.362zM9.6 21.98h3.328v1.81H9.6v-1.81zM19.072 21.98H22.4v1.81h-3.328v-1.81z"/>

            <path d="M11.136 5.947h3.328v1.81h-3.328v-1.81zM17.536 5.947h3.328v1.81h-3.328v-1.81zM23.936 10.861h3.328v1.81h-3.328v-1.81zM4.736 10.861h3.328v1.81H4.736v-1.81z"/>

            <path d="M12.672 2.586h1.792v3.362h-1.792V2.586zM17.536 2.586h1.792v3.362h-1.792V2.586zM6.272 20.428H8.32V25.6H6.272v-5.172zM23.68 20.428h2.048V25.6H23.68v-5.172zM12.672 20.428h1.792v1.81h-1.792v-1.81zM17.536 20.428h1.792v1.81h-1.792v-1.81zM23.936 12.412h1.792v1.81h-1.792v-1.81zM27.008 9.05H28.8v1.81h-1.792V9.05zM3.2 9.05h1.792v1.81H3.2V9.05zM6.272 12.412h1.792v1.81H6.272v-1.81z"/>

            <path d="M7.808 23.79H9.6v1.81H7.808v-1.81zM22.4 23.79h1.792v1.81H22.4v-1.81zM15.232 0h1.536v1.034h-1.536V0z"/>
        </symbol>

        <symbol id="moon" viewBox="0 0 29 32">
            <path fill="#f1ad00" stroke="#111740" stroke-width="1.215" d="M7.885 13.772c0 .623.076.912.124 1.496 0 0 1.644 3.887 3.719 5.235 2.106 1.368 6.075 1.246 6.075 1.246l1.24-.249s2.355-.498 3.967-2.119 1.983-3.49 1.983-3.49-6.199 3.116-9.546-2.119 2.727-10.095 2.727-10.095-5.703.374-8.058 3.116-2.232 6.98-2.232 6.98z" style="fill:var(--color1, #f1ad00);stroke:var(--color2, #111740)"/>

            <path fill="#779dc6" d="M19.786 12.775h5.083s1.736 0 1.86-2.243-1.86-2.243-1.86-2.243 0-2.617-2.603-2.617-2.479 2.617-2.479 2.617-1.86 0-1.86 2.243 1.86 2.243 1.86 2.243zM15.447 25.488H5.033s-2.603-.872-2.603-2.991 2.479-3.365 2.479-3.365-.372-2.493 2.355-3.614 4.835.997 4.835.997 1.736-.997 2.851 0c1.116.997.496 2.617.496 2.617s2.603.997 2.355 3.365c-.248 2.368-2.355 2.991-2.355 2.991z" style="fill:var(--color3, #779dc6)"/>

            <path fill="none" stroke="#111740" stroke-width="1.215" d="M19.786 12.775h5.083s1.736 0 1.86-2.243-1.86-2.243-1.86-2.243 0-2.617-2.603-2.617-2.479 2.617-2.479 2.617-1.86 0-1.86 2.243 1.86 2.243 1.86 2.243zM15.447 25.488H5.033s-2.603-.872-2.603-2.991 2.479-3.365 2.479-3.365-.372-2.493 2.355-3.614 4.835.997 4.835.997 1.736-.997 2.851 0c1.116.997.496 2.617.496 2.617s2.603.997 2.355 3.365c-.248 2.368-2.355 2.991-2.355 2.991z" style="stroke:var(--color2, #111740)"/>

            <path fill="#f1ad00" d="M7.141 5.172s-.763-.531-1.116-.997c-.447-.59-.744-1.745-.744-1.745s-.392 1.152-.868 1.745c-.366.456-1.116.997-1.116.997s.738.713 1.116 1.246c.415.585.868 1.62.868 1.62s.36-1.04.744-1.62c.361-.545 1.116-1.246 1.116-1.246zM26.481 23.868s-.763-.531-1.116-.997c-.447-.59-.744-1.745-.744-1.745s-.392 1.152-.868 1.745c-.366.456-1.116.997-1.116.997s.738.713 1.116 1.246c.415.585.868 1.62.868 1.62s.36-1.04.744-1.62c.361-.545 1.116-1.246 1.116-1.246z" style="fill:var(--color1, #f1ad00)"/>

            <path fill="none" stroke="#111740" stroke-width="1.215" d="M7.141 5.172s-.763-.531-1.116-.997c-.447-.59-.744-1.745-.744-1.745s-.392 1.152-.868 1.745c-.366.456-1.116.997-1.116.997s.738.713 1.116 1.246c.415.585.868 1.62.868 1.62s.36-1.04.744-1.62c.361-.545 1.116-1.246 1.116-1.246zM26.481 23.868s-.763-.531-1.116-.997c-.447-.59-.744-1.745-.744-1.745s-.392 1.152-.868 1.745c-.366.456-1.116.997-1.116.997s.738.713 1.116 1.246c.415.585.868 1.62.868 1.62s.36-1.04.744-1.62c.361-.545 1.116-1.246 1.116-1.246z" style="stroke:var(--color2, #111740)"/>
        </symbol>

        <symbol id="pixel-heart" viewBox="0 0 32 32">
            <path d="M14.933 21.229h2.133V25.6h-2.133v-4.371z"/>
            <path d="M14.933 21.229h2.133V25.6h-2.133v-4.371z"/>
            <path d="M13.867 21.229h4.267v2.498h-4.267v-2.498z"/>
            <path d="M13.867 21.229h4.267v2.498h-4.267v-2.498z"/>
            <path d="M18.133 18.732h2.133v2.498h-2.133v-2.497z"/>
            <path d="M18.133 18.732h2.133v2.498h-2.133v-2.497zM20.266 16.234h2.133v2.498h-2.133v-2.498z"/>
            <path d="M20.266 16.234h2.133v2.498h-2.133v-2.498zM22.4 13.737h2.133v2.498h-2.134v-2.498z"/>
            <path d="M22.4 13.737h2.133v2.498h-2.134v-2.498zM24.533 11.239h2.133v2.498h-2.133v-2.498z"/>
            <path d="M24.533 11.239h2.133v2.498h-2.133v-2.498zM26.667 4.995H28.8v6.244h-2.134V4.995z"/>
            <path d="M26.667 4.995H28.8v6.244h-2.134V4.995zM3.2 4.995h2.133v6.244H3.2V4.995z"/>
            <path d="M3.2 4.995h2.133v6.244H3.2V4.995zM11.734 18.732h2.133v2.497h-2.133v-2.498z"/>
            <path d="M11.734 18.732h2.133v2.497h-2.133v-2.498zM9.6 16.234h2.133v2.498H9.599v-2.498z"/>
            <path d="M9.6 16.234h2.133v2.498H9.599v-2.498z"/>
            <path d="M7.467 13.737H9.6v2.498H7.467v-2.498z"/>
            <path d="M7.467 13.737H9.6v2.498H7.467v-2.498zM5.333 11.239h2.133v2.498H5.332V11.24z"/>
            <path d="M5.333 11.239h2.133v2.498H5.332V11.24zM12.8 2.498h2.133v2.498H12.8V2.498z"/>
            <path d="M12.8 2.498h2.133v2.498H12.8V2.498zM17.066 2.498h2.133v2.498h-2.133V2.498z"/>
            <path d="M17.066 2.498h2.133v2.498h-2.133V2.498zM24.533 2.498h2.133v2.498h-2.134V2.498z"/>
            <path d="M24.533 2.498h2.133v2.498h-2.134V2.498zM19.2 0h5.333v2.498H19.2V0z"/>
            <path d="M19.2 0h5.333v2.498H19.2V0zM7.467 0H12.8v2.498H7.467V0z"/>
            <path d="M7.467 0H12.8v2.498H7.467V0zM14.933 4.995h2.133v2.498h-2.133V4.995z"/>
            <path d="M14.933 4.995h2.133v2.498h-2.133V4.995zM5.333 2.498h2.134v2.498H5.334V2.498z"/>
            <path d="M5.333 2.498h2.134v2.498H5.334V2.498z"/>
        </symbol>

        <symbol id="bow" viewBox="0 0 33 32">
            <path fill="#f283a5" d="M12.328 26.087c-.162-4.956.403-7.873 2.527-15.483l-7.321 4.081c-2.272 4.347-3.045 6.471-3.239 9.523l4.341-2.203 3.693 4.081z" style="fill:var(--color4, #f283a5)"/>

            <path fill="#f283a5" d="M14.855 10.603c1.49.324 1.101.454 2.915 0 0 0 .777-.324.777-1.49V6.716c-.141-.752-.338-.939-.777-1.101h-2.721c-.565.604-.675.962-.648 1.62v2.138c.185.972 0 .777.454 1.231zM28.524 24.208c-.387-3.704-.921-5.785-3.563-9.523l-7.191-4.081c1.849 7.438 2.997 10.512 2.721 15.483l3.563-4.081 4.47 2.203z" style="fill:var(--color4, #f283a5)"/>

            <path fill="#f7a1c8" d="M2.675 1.922c0 .842-.127 8.672.583 11.337 2.246-3.251 6.284-1.166 11.143-3.887V7.234c-.027-.658.083-1.015.648-1.62-1.87-1.833-3.218-2.77-6.997-4.017-2.459-.756-5.377-.518-5.377.324zM29.625 13.259c.643-3.056.907-10.689.648-11.337s-1.824-.885-4.6-.324c-5.973 1.359-6.366 2.336-7.904 4.017.439.162.636.349.777 1.101v2.397c4.535 2.332 11.078 2.462 11.078 4.146z" style="fill:var(--color5, #f7a1c8)"/>

            <path fill="#ed7899" d="M3.258 13.259c.221 1.299.606 1.893 4.276 1.425l7.321-4.081c-.454-.454-.268-.259-.454-1.231-4.859 2.721-8.897.636-11.143 3.887zM24.961 14.685c3.202.548 4.203.221 4.664-1.425 0-1.684-6.543-1.814-11.078-4.146 0 1.166-.777 1.49-.777 1.49l7.191 4.081z" style="fill:var(--color6, #ed7899)"/>

            <path fill="none" stroke="#3d264a" stroke-width="1.905" d="M24.961 14.685c2.642 3.738 3.176 5.82 3.563 9.523l-4.47-2.203-3.563 4.081c.276-4.971-.872-8.045-2.721-15.483m7.191 4.082c3.202.548 4.203.221 4.664-1.425m-4.664 1.425-7.191-4.081m0-.001c-1.814.454-1.425.324-2.915 0m2.915 0s.777-.324.777-1.49m-3.692 1.49c-2.124 7.61-2.689 10.527-2.527 15.483l-3.693-4.081-4.34 2.203c.194-3.052.967-5.176 3.239-9.523m7.321-4.082c-.454-.454-.268-.259-.454-1.231m.454 1.231-7.321 4.081m0 .001c-3.669.468-4.054-.126-4.276-1.425m0-.001c-.71-2.665-.583-10.495-.583-11.337s2.918-1.08 5.377-.324c3.779 1.247 5.126 2.183 6.997 4.017M3.258 13.259c2.246-3.251 6.284-1.166 11.143-3.887m.648-3.757h2.721m-2.721 0c-.565.604-.675.962-.648 1.62v2.138m3.369-3.758c.439.162.636.349.777 1.101v2.397m-.777-3.498c1.538-1.681 1.93-2.657 7.904-4.017 2.775-.562 4.34-.324 4.6.324s-.005 8.281-.648 11.337m-.001 0c0-1.684-6.543-1.814-11.078-4.146" style="stroke:var(--color7, #3d264a)"/>
            
            <path fill="none" stroke="#3d264a" stroke-linecap="round" stroke-width="1.905" d="M26.386 3.736h1.684M26.451 6.263h1.684M26.451 8.854h1.684M4.684 3.801h1.684M4.684 6.263h1.684M4.684 8.854h1.684M23.341 18.442l.259 1.425M9.737 18.442l-.389 1.425M11.615 12.612c-.972 1.49-.842 1.814-1.49 3.887M21.199 12.649c.972 1.49.842 1.814 1.49 3.887" style="stroke:var(--color7, #3d264a)"/>
        </symbol>

        <symbol id="star-set" viewBox="0 0 106 32">
            <path fill="#ebe2a9" d="M.941.471a.471.471 0 1 1-.942 0 .471.471 0 0 1 .942 0zM22.51 10.431a.314.314 0 1 1-.628 0 .314.314 0 0 1 .628 0zM5.333 19.294a.392.392 0 1 1-.784 0 .392.392 0 0 1 .784 0zM41.804 31.804a.196.196 0 1 1-.393 0 .196.196 0 0 1 .393 0zM58.745 19.961a.275.275 0 1 1-.55-.001.275.275 0 0 1 .55.001zM69.412 8.627a.392.392 0 1 1-.784 0 .392.392 0 0 1 .784 0zM31.451 20.588a.51.51 0 1 1-1.02 0 .51.51 0 0 1 1.02 0zM105.882 27.373a.392.392 0 1 1-.784 0 .392.392 0 0 1 .784 0zM101.49 8.941a.314.314 0 1 1-.628 0 .314.314 0 0 1 .628 0z" style="fill:var(--color1, #ebe2a9)"/>
        </symbol>

        <symbol id="star-set-mobile" viewBox="0 0 33 32">
            <path fill="#ebe2a9" d="M5.246 4.262a.328.328 0 1 1-.656 0 .328.328 0 0 1 .656 0zM28.984 6.885a.59.59 0 1 1-1.18 0 .59.59 0 0 1 1.18 0zM2.885 27.672a.393.393 0 1 1-.786 0 .393.393 0 0 1 .786 0zM20.59 19.344a.46.46 0 1 1-.92-.001.46.46 0 0 1 .92.001zM11.148 12.328a.656.656 0 1 1-1.313 0 .656.656 0 0 1 1.313 0z" style="fill:var(--color1, #ebe2a9)"/>
        </symbol>
</defs>
</svg>