<svg xmlns="http://www.w3.org/2000/svg" aria-hidden="true" style="position:absolute;width:0;height:0;overflow:hidden">
    <defs>
        <symbol id="bow" viewBox="0 0 33 32">
            <path fill="#f283a5" d="M12.328 26.087c-.162-4.956.403-7.873 2.527-15.483l-7.321 4.081c-2.272 4.347-3.045 6.471-3.239 9.523l4.341-2.203 3.693 4.081z" style="fill:var(--color1, #f283a5)"/>
            <path fill="#f283a5" d="M14.855 10.603c1.49.324 1.101.454 2.915 0 0 0 .777-.324.777-1.49V6.716c-.141-.752-.338-.939-.777-1.101h-2.721c-.565.604-.675.962-.648 1.62v2.138c.185.972 0 .777.454 1.231zM28.524 24.208c-.387-3.704-.921-5.785-3.563-9.523l-7.191-4.081c1.849 7.438 2.997 10.512 2.721 15.483l3.563-4.081 4.47 2.203z" style="fill:var(--color1, #f283a5)"/>
            <path fill="#f7a1c8" d="M2.675 1.922c0 .842-.127 8.672.583 11.337 2.246-3.251 6.284-1.166 11.143-3.887V7.234c-.027-.658.083-1.015.648-1.62-1.87-1.833-3.218-2.77-6.997-4.017-2.459-.756-5.377-.518-5.377.324zM29.625 13.259c.643-3.056.907-10.689.648-11.337s-1.824-.885-4.6-.324c-5.973 1.359-6.366 2.336-7.904 4.017.439.162.636.349.777 1.101v2.397c4.535 2.332 11.078 2.462 11.078 4.146z" style="fill:var(--color2, #f7a1c8)"/>
            <path fill="#ed7899" d="M3.258 13.259c.221 1.299.606 1.893 4.276 1.425l7.321-4.081c-.454-.454-.268-.259-.454-1.231-4.859 2.721-8.897.636-11.143 3.887zM24.961 14.685c3.202.548 4.203.221 4.664-1.425 0-1.684-6.543-1.814-11.078-4.146 0 1.166-.777 1.49-.777 1.49l7.191 4.081z" style="fill:var(--color3, #ed7899)"/>
            <path fill="none" stroke="#3d264a" stroke-width="1.905" d="M24.961 14.685c2.642 3.738 3.176 5.82 3.563 9.523l-4.47-2.203-3.563 4.081c.276-4.971-.872-8.045-2.721-15.483m7.191 4.082c3.202.548 4.203.221 4.664-1.425m-4.664 1.425-7.191-4.081m0-.001c-1.814.454-1.425.324-2.915 0m2.915 0s.777-.324.777-1.49m-3.692 1.49c-2.124 7.61-2.689 10.527-2.527 15.483l-3.693-4.081-4.34 2.203c.194-3.052.967-5.176 3.239-9.523m7.321-4.082c-.454-.454-.268-.259-.454-1.231m.454 1.231-7.321 4.081m0 .001c-3.669.468-4.054-.126-4.276-1.425m0-.001c-.71-2.665-.583-10.495-.583-11.337s2.918-1.08 5.377-.324c3.779 1.247 5.126 2.183 6.997 4.017M3.258 13.259c2.246-3.251 6.284-1.166 11.143-3.887m.648-3.757h2.721m-2.721 0c-.565.604-.675.962-.648 1.62v2.138m3.369-3.758c.439.162.636.349.777 1.101v2.397m-.777-3.498c1.538-1.681 1.93-2.657 7.904-4.017 2.775-.562 4.34-.324 4.6.324s-.005 8.281-.648 11.337m-.001 0c0-1.684-6.543-1.814-11.078-4.146" style="stroke:var(--color4, #3d264a)"/>
            <path fill="none" stroke="#3d264a" stroke-linecap="round" stroke-width="1.905" d="M26.386 3.736h1.684M26.451 6.263h1.684M26.451 8.854h1.684M4.684 3.801h1.684M4.684 6.263h1.684M4.684 8.854h1.684M23.341 18.442l.259 1.425M9.737 18.442l-.389 1.425M11.615 12.612c-.972 1.49-.842 1.814-1.49 3.887M21.199 12.649c.972 1.49.842 1.814 1.49 3.887" style="stroke:var(--color4, #3d264a)"/>
        </symbol>

        <symbol id="pixel-heart" viewBox="0 0 32 32">
            <path d="M14.933 21.229h2.133V25.6h-2.133v-4.371z" />
            <path d="M14.933 21.229h2.133V25.6h-2.133v-4.371z" />
            <path d="M13.867 21.229h4.267v2.498h-4.267v-2.498z" />
            <path d="M13.867 21.229h4.267v2.498h-4.267v-2.498z" />
            <path d="M18.133 18.732h2.133v2.498h-2.133v-2.498z" />
            <path d="M18.133 18.732h2.133v2.498h-2.133v-2.498z" />
            <path d="M20.266 16.234h2.133v2.498h-2.133v-2.498z" />
            <path d="M20.266 16.234h2.133v2.498h-2.133v-2.498z" />
            <path d="M22.4 13.737h2.133v2.498H22.4v-2.498z" />
            <path d="M22.4 13.737h2.133v2.498H22.4v-2.498z" />
            <path d="M24.533 11.239h2.133v2.498h-2.133v-2.498z" />
            <path d="M24.533 11.239h2.133v2.498h-2.133v-2.498z" />
            <path d="M26.667 4.995H28.8v6.244h-2.133V4.995z" />
            <path d="M26.667 4.995H28.8v6.244h-2.133V4.995z" />
            <path d="M3.2 4.995h2.133v6.244H3.2V4.995z" />
            <path d="M3.2 4.995h2.133v6.244H3.2V4.995z" />
            <path d="M11.734 18.732h2.133v2.498h-2.133v-2.498z" />
            <path d="M11.734 18.732h2.133v2.498h-2.133v-2.498z" />
            <path d="M9.6 16.234h2.133v2.498H9.6v-2.498z" />
            <path d="M9.6 16.234h2.133v2.498H9.6v-2.498z" />
            <path d="M7.467 13.737H9.6v2.498H7.467v-2.498z" />
            <path d="M7.467 13.737H9.6v2.498H7.467v-2.498z" />
            <path d="M5.333 11.239h2.133v2.498H5.333v-2.498z" />
            <path d="M5.333 11.239h2.133v2.498H5.333v-2.498z" />
            <path d="M12.8 2.498h2.133v2.498H12.8V2.498z" />
            <path d="M12.8 2.498h2.133v2.498H12.8V2.498z" />
            <path d="M17.066 2.498h2.133v2.498h-2.133V2.498z" />
            <path d="M17.066 2.498h2.133v2.498h-2.133V2.498z" />
            <path d="M24.533 2.498h2.133v2.498h-2.133V2.498z" />
            <path d="M24.533 2.498h2.133v2.498h-2.133V2.498z" />
            <path d="M19.2 0h5.333v2.498H19.2V0z" />
            <path d="M19.2 0h5.333v2.498H19.2V0z" />
            <path d="M7.467 0H12.8v2.498H7.467V0z" />
            <path d="M7.467 0H12.8v2.498H7.467V0z" />
            <path d="M14.933 4.995h2.133v2.498h-2.133V4.995z" />
            <path d="M14.933 4.995h2.133v2.498h-2.133V4.995z" />
            <path d="M5.333 2.498h2.133v2.498H5.333V2.498z" />
            <path d="M5.333 2.498h2.133v2.498H5.333V2.498z" />
        </symbol>
    </defs>
</svg>